#N canvas 325 50 819 475 12;
#X obj 61 47 bng 15 250 50 0 empty empty empty 17 7 0 10 -262144 -1
-1;
#X obj 61 67 openpanel;
#N canvas 0 22 450 278 (subpatch) 0;
#X array audioData 427678 float 2;
#X coords 0 1 427678 -1 200 140 1;
#X restore 255 43 graph;
#X msg 61 91 read -resize \$1 audioData;
#X obj 60 114 soundfiler;
#X floatatom 60 137 8 0 0 0 - - -;
#X obj 60 161 s end;
#X msg 111 160 range 0 \$1;
#X obj 258 206 hsl 200 15 0 427678 0 0 empty empty empty -2 -8 0 10
-204786 -1 -1 7000 1;
#X obj 259 253 hsl 200 15 0 427678 0 0 empty empty empty -2 -8 0 10
-261234 -1 -1 2100 1;
#X obj 255 226 s start;
#X obj 256 273 s end;
#X obj 490 86 bng 15 250 50 0 empty empty empty 17 7 0 10 -262144 -1
-1;
#X obj 490 111 f;
#X obj 490 136 pack f f f;
#X msg 490 161 \$1 \, \$2 \$3;
#X obj 490 186 vline~;
#X obj 490 209 tabread~ audioData;
#X obj 554 271 *~;
#X obj 554 294 dac~;
#X obj 568 42 r start;
#X obj 568 65 expr abs($f2 - $f1) / 44.1;
#X obj 712 41 r end;
#X obj 523 110 r end;
#X floatatom 568 89 8 0 0 0 - - -;
#X obj 569 110 / 1;
#X floatatom 600 110 5 0.5 2 0 - - -;
#X obj 60 362 loadbang;
#N canvas 737 338 274 245 make-grain-env 0;
#X obj 16 42 t b b;
#X obj 16 106 f;
#X obj 44 106 + 1;
#X msg 54 63 0;
#X obj 16 85 until;
#X obj 16 127 t f f;
#X obj 16 20 inlet;
#X obj 16 188 tabwrite grain-env;
#X msg 16 63 2048;
#X obj 16 148 expr ($f1-1024)/1024;
#X obj 16 168 expr 0.5+(cos($f1 * 3.141)/2);
#X connect 0 0 8 0;
#X connect 0 1 3 0;
#X connect 1 0 2 0;
#X connect 1 0 5 0;
#X connect 2 0 1 1;
#X connect 3 0 1 1;
#X connect 4 0 1 0;
#X connect 5 0 9 0;
#X connect 5 1 7 1;
#X connect 6 0 0 0;
#X connect 8 0 4 0;
#X connect 9 0 10 0;
#X connect 10 0 7 0;
#X restore 60 383 pd make-grain-env;
#X obj 634 208 tabread4~ grain-env;
#N canvas 0 0 450 300 (subpatch) 0;
#X array grain-env 2048 float 0;
#X coords 0 1 2047 -1 100 100 1;
#X restore 60 251 graph;
#X obj 634 183 vline~;
#X msg 634 160 0 \, 2048 \$1;
#X obj 554 246 *~;
#X obj 634 137 f;
#X obj 589 271 hsl 32 15 0 1 0 0 empty empty vol -2 -8 0 10 -228856
-1 -1 3100 1;
#X connect 0 0 1 0;
#X connect 1 0 3 0;
#X connect 3 0 4 0;
#X connect 4 0 5 0;
#X connect 5 0 6 0;
#X connect 5 0 7 0;
#X connect 7 0 8 0;
#X connect 7 0 9 0;
#X connect 8 0 10 0;
#X connect 9 0 11 0;
#X connect 12 0 13 0;
#X connect 12 0 34 0;
#X connect 13 0 14 0;
#X connect 14 0 15 0;
#X connect 15 0 16 0;
#X connect 16 0 17 0;
#X connect 17 0 33 0;
#X connect 18 0 19 0;
#X connect 18 0 19 1;
#X connect 20 0 13 1;
#X connect 20 0 21 0;
#X connect 21 0 24 0;
#X connect 22 0 21 1;
#X connect 23 0 14 1;
#X connect 24 0 25 0;
#X connect 25 0 14 2;
#X connect 25 0 34 1;
#X connect 26 0 25 1;
#X connect 27 0 28 0;
#X connect 29 0 33 1;
#X connect 31 0 29 0;
#X connect 32 0 31 0;
#X connect 33 0 18 0;
#X connect 34 0 32 0;
#X connect 35 0 18 1;
