#N canvas 22 473 397 273 12;
#X obj 47 137 urn 9;
#X msg 121 112 clear;
#X obj 70 111 uzi 9;
#X obj 47 207 list store, f 11;
#X obj 47 230 print;
#X msg 47 183 append \$1;
#X obj 121 138 bng 15 250 50 0 empty empty empty 17 7 0 10 -262144
-1 -1;
#X obj 47 61 bng 15 250 50 0 empty empty empty 17 7 0 10 -262144 -1
-1;
#X obj 47 87 t b b b;
#X floatatom 77 59 5 0 0 1 tot_n_examples - -;
#X text 42 33 GENERATE RANDOM SEQ;
#X floatatom 109 88 5 0 0 1 n_select - -;
#X obj 257 54 bng 15 250 50 0 empty empty empty 17 7 0 10 -262144 -1
-1;
#X msg 294 75 6;
#X msg 257 75 9;
#X text 278 53 TEST 1;
#X obj 257 102 bng 15 250 50 0 empty empty empty 17 7 0 10 -262144
-1 -1;
#X msg 294 123 6;
#X obj 258 154 bng 15 250 50 0 empty empty empty 17 7 0 10 -262144
-1 -1;
#X text 278 102 TEST 2;
#X text 279 153 TEST 3;
#X msg 257 123 17;
#X msg 258 175 3;
#X msg 295 175 3;
#X obj 47 160 + 1;
#X connect 0 0 24 0;
#X connect 1 0 0 0;
#X connect 1 0 6 0;
#X connect 2 0 0 0;
#X connect 3 0 4 0;
#X connect 5 0 3 0;
#X connect 6 0 3 1;
#X connect 7 0 8 0;
#X connect 8 0 3 0;
#X connect 8 1 2 0;
#X connect 8 2 1 0;
#X connect 9 0 0 1;
#X connect 11 0 2 1;
#X connect 12 0 13 0;
#X connect 12 0 14 0;
#X connect 13 0 11 0;
#X connect 14 0 9 0;
#X connect 16 0 17 0;
#X connect 16 0 21 0;
#X connect 17 0 11 0;
#X connect 18 0 23 0;
#X connect 18 0 22 0;
#X connect 21 0 9 0;
#X connect 22 0 9 0;
#X connect 23 0 11 0;
#X connect 24 0 5 0;
